<svg width="154" height="21" viewBox="0 0 154 21" fill="none" xmlns="http://www.w3.org/2000/svg">
<g clip-path="url(#clip0_1_6)">
<path d="M14.0957 15.2285V8.18164C14.0957 7.03581 14.6113 6.04753 15.6426 5.2168C16.4876 4.55794 17.3971 4.22852 18.3711 4.22852C20.1758 4.22852 21.4792 4.72982 22.2812 5.73242C22.4388 5.93294 22.5605 6.1263 22.6465 6.3125L20.0898 7.17188C20.0898 6.32682 19.5742 5.80404 18.543 5.60352C18.5286 5.60352 18.5143 5.60352 18.5 5.60352C17.3542 5.86133 16.7383 6.8138 16.6523 8.46094C16.638 8.64714 16.6309 8.84049 16.6309 9.04102V9.27734C16.6309 9.73568 16.8314 10.0508 17.2324 10.2227C17.3613 10.2799 17.4902 10.3086 17.6191 10.3086H19.7676C19.7676 10.8958 19.4453 11.39 18.8008 11.791C18.3854 12.0488 17.9486 12.1777 17.4902 12.1777H16.6523V16.5176C16.6523 17.6491 16.015 18.5514 14.7402 19.2246C14.153 19.5254 13.5156 19.7331 12.8281 19.8477L11.8828 18.5586C12.8854 18.0716 13.5299 17.5059 13.8164 16.8613C14.0026 16.4316 14.0957 15.8874 14.0957 15.2285ZM28.7145 4.25C30.1611 4.25 31.3929 4.68685 32.4098 5.56055C33.2262 6.27669 33.6416 7.08594 33.6559 7.98828V16.002C33.6559 16.5605 33.1188 17.069 32.0446 17.5273C31.3141 17.8424 30.6768 18 30.1325 18C28.6859 18 27.4541 17.5632 26.4372 16.6895C25.6208 15.9733 25.2054 15.1641 25.1911 14.2617V6.24805C25.1911 5.68945 25.7282 5.18099 26.8024 4.72266C27.5329 4.40755 28.1703 4.25 28.7145 4.25ZM27.7048 6.14062V13.4023C27.7048 14.7487 28.292 15.5866 29.4665 15.916C29.9248 16.0449 30.4762 16.1094 31.1208 16.1094V8.84766C31.1208 7.5013 30.5335 6.66341 29.3591 6.33398C28.9007 6.20508 28.3493 6.14062 27.7048 6.14062ZM40.2396 4.25C41.6862 4.25 42.918 4.68685 43.9349 5.56055C44.7513 6.27669 45.1667 7.08594 45.181 7.98828V16.002C45.181 16.5605 44.6439 17.069 43.5697 17.5273C42.8392 17.8424 42.2018 18 41.6576 18C40.211 18 38.9792 17.5632 37.9623 16.6895C37.1459 15.9733 36.7305 15.1641 36.7162 14.2617V6.24805C36.7162 5.68945 37.2533 5.18099 38.3275 4.72266C39.058 4.40755 39.6953 4.25 40.2396 4.25ZM39.2298 6.14062V13.4023C39.2298 14.7487 39.8171 15.5866 40.9916 15.916C41.4499 16.0449 42.0013 16.1094 42.6459 16.1094V8.84766C42.6459 7.5013 42.0586 6.66341 40.8841 6.33398C40.4258 6.20508 39.8744 6.14062 39.2298 6.14062ZM51.8721 5.9043C50.669 5.9043 49.9314 6.2194 49.6592 6.84961C49.5876 7.00716 49.5518 7.16471 49.5518 7.32227L47.0166 6.46289C47.4607 5.31706 48.5635 4.59375 50.3252 4.29297C50.7836 4.22135 51.2562 4.18555 51.7432 4.18555C54.4359 4.18555 56.4053 5.23828 57.6514 7.34375C58.4535 8.70443 58.8545 10.3372 58.8545 12.2422C58.8545 14.1901 58.5466 15.737 57.9307 16.8828C57.5297 17.6133 57.0642 17.9857 56.5342 18H52.4307C51.7002 18 51.1416 17.6921 50.7549 17.0762C50.5401 16.7324 50.4327 16.3743 50.4327 16.002V7.66602L52.9893 7V15.0566C52.9893 15.5723 53.2113 15.9017 53.6553 16.0449C53.7556 16.0879 53.863 16.1094 53.9776 16.1094H54.9444C55.4027 16.1094 55.7608 15.6296 56.0186 14.6699C56.1905 13.9824 56.2764 13.1732 56.2764 12.2422C56.2478 8.03125 54.7797 5.91862 51.8721 5.9043ZM64.0632 18V5.64648C63.4903 5.87565 63.2038 6.37695 63.2038 7.15039L60.6687 6.29102C61.0554 5.25977 61.836 4.60807 63.0105 4.33594C63.3542 4.26432 63.7051 4.22852 64.0632 4.22852L66.6198 4.89453V10.3086H68.3386C68.7969 10.3086 69.1049 10.1009 69.2624 9.68555C69.3054 9.57096 69.3269 9.44922 69.3269 9.32031V4.63672L71.8835 4.22852V9.04102C71.8835 9.88607 71.2103 10.5736 69.864 11.1035C69.7924 11.1322 69.7279 11.1536 69.6706 11.168C71.2891 11.8411 72.1771 12.8223 72.3347 14.1113C72.349 14.2402 72.3562 14.3691 72.3562 14.498V16.9258C72.3562 18.0573 72.6784 18.9023 73.323 19.4609C73.6381 19.7188 74.0606 19.9766 74.5905 20.2344L73.6667 21.5234C72.2344 21.2943 71.1602 20.7572 70.4441 19.9121C70.0287 19.3965 69.821 18.8307 69.821 18.2148V14.2188C69.821 13.4596 69.4271 12.8867 68.6394 12.5C68.2956 12.3424 67.8588 12.1849 67.3288 12.0273L66.6198 10.8027V16.002C66.6198 16.7181 66.2474 17.2695 65.5027 17.6562C65.0586 17.8854 64.5788 18 64.0632 18ZM79.0902 4.25C80.5368 4.25 81.7686 4.68685 82.7855 5.56055C83.602 6.27669 84.0173 7.08594 84.0316 7.98828V16.002C84.0316 16.5605 83.4945 17.069 82.4203 17.5273C81.6898 17.8424 81.0525 18 80.5082 18C79.0616 18 77.8298 17.5632 76.8129 16.6895C75.9965 15.9733 75.5811 15.1641 75.5668 14.2617V6.24805C75.5668 5.68945 76.1039 5.18099 77.1781 4.72266C77.9086 4.40755 78.546 4.25 79.0902 4.25ZM78.0805 6.14062V13.4023C78.0805 14.7487 78.6677 15.5866 79.8422 15.916C80.3005 16.0449 80.852 16.1094 81.4965 16.1094V8.84766C81.4965 7.5013 80.9092 6.66341 79.7348 6.33398C79.2764 6.20508 78.725 6.14062 78.0805 6.14062ZM89.5626 15.0566C89.5626 15.5723 89.7846 15.9017 90.2286 16.0449C90.3289 16.0879 90.4363 16.1094 90.5509 16.1094H92.6134V14.3047C92.599 13.5312 92.2195 12.9727 91.4747 12.6289L89.3477 11.7051C88.1016 11.2324 87.3998 10.6595 87.2423 9.98633C87.2136 9.85742 87.1993 9.73568 87.1993 9.62109V7.92383C87.1993 6.60612 87.8152 5.59635 89.047 4.89453C89.8204 4.45052 90.6654 4.22852 91.5821 4.22852C93.0001 4.22852 94.0385 4.70117 94.6973 5.64648C94.8262 5.84701 94.9337 6.04753 95.0196 6.24805L92.463 7.10742C92.377 6.23372 92.0118 5.76107 91.3673 5.68945C90.8087 5.68945 90.3647 5.9401 90.0352 6.44141C89.849 6.72786 89.7559 7.02865 89.7559 7.34375V9.01953C89.7559 9.46354 90.1427 9.8431 90.9161 10.1582C91.088 10.2298 91.3816 10.3372 91.797 10.4805C93.0574 10.9245 93.9096 11.3613 94.3536 11.791C94.8835 12.3066 95.1485 12.9512 95.1485 13.7246V16.002C95.1485 16.7611 94.8334 17.334 94.2032 17.7207C93.8881 17.9069 93.5515 18 93.1934 18H88.9825C88.2664 18 87.7078 17.6921 87.3067 17.0762C87.1062 16.7467 87.0059 16.3887 87.0059 16.002V14.2402L89.5626 13.9609V15.0566ZM102.033 18V6.14062H100.551C99.9633 6.14062 99.6052 6.42708 99.4763 7C99.4477 7.12891 99.4334 7.26497 99.4334 7.4082L96.8982 6.24805C97.3709 5.04492 98.3591 4.37891 99.863 4.25C100.006 4.23568 100.157 4.22852 100.314 4.22852H108.972L107.877 6.14062H104.59V16.002C104.59 16.7181 104.217 17.2695 103.472 17.6562C103.028 17.8854 102.549 18 102.033 18Z" fill="black"/>
<g clip-path="url(#clip1_1_6)">
<path d="M130.5 2C129.119 2 128 3.11925 128 4.5V12H130V18H133V4.5C133 3.11925 131.881 2 130.5 2ZM123.5 2C123.224 2 123 2.22387 123 2.5V6C123 6.13806 122.776 6.25 122.5 6.25C122.224 6.25 122 6.13806 122 6V2.5C122 2.22387 121.776 2 121.5 2C121.224 2 121 2.22387 121 2.5V6C121 6.13806 120.776 6.25 120.5 6.25C120.224 6.25 120 6.13806 120 6V2.5C120 2.22387 119.776 2 119.5 2C119.224 2 119 2.22387 119 2.5V6C119 6.13806 118.776 6.25 118.5 6.25C118.224 6.25 118 6.13806 118 6V2.5C118 2.22387 117.776 2 117.5 2C117.224 2 117 2.22387 117 2.5V6V7C117 7.44247 117.392 7.68922 117.828 8C118.378 8.39162 119 8.88494 119 10V18H122V10C122 8.88494 122.622 8.39162 123.172 8C123.608 7.68922 124 7.44247 124 7V6V2.5C124 2.22387 123.776 2 123.5 2Z" fill="#03FF1D"/>
</g>
</g>
<defs>
<clipPath id="clip0_1_6">
<rect width="154" height="21" fill="white"/>
</clipPath>
<clipPath id="clip1_1_6">
<rect width="16" height="16" fill="white" transform="translate(117 2)"/>
</clipPath>
</defs>
</svg>
